<mxfile host="app.diagrams.net" modified="2023-10-17T12:00:34.006Z" agent="Mozilla/5.0 (Windows NT 10.0; Win64; x64; rv:109.0) Gecko/20100101 Firefox/118.0" etag="7PANn_MbCRDvNEXwmdsq" version="22.0.4" type="device">
  <diagram id="C5RBs43oDa-KdzZeNtuy" name="Page-1">
    <mxGraphModel dx="2848" dy="626" grid="1" gridSize="10" guides="1" tooltips="1" connect="1" arrows="1" fold="1" page="1" pageScale="1" pageWidth="827" pageHeight="1169" math="0" shadow="0">
      <root>
        <mxCell id="WIyWlLk6GJQsqaUBKTNV-0" />
        <mxCell id="WIyWlLk6GJQsqaUBKTNV-1" parent="WIyWlLk6GJQsqaUBKTNV-0" />
        <mxCell id="zkfFHV4jXpPFQw0GAbJ--0" value="Character" style="swimlane;fontStyle=2;align=center;verticalAlign=top;childLayout=stackLayout;horizontal=1;startSize=26;horizontalStack=0;resizeParent=1;resizeLast=0;collapsible=1;marginBottom=0;rounded=0;shadow=0;strokeWidth=1;" parent="WIyWlLk6GJQsqaUBKTNV-1" vertex="1">
          <mxGeometry x="-267" y="915" width="280" height="70" as="geometry">
            <mxRectangle x="334" y="640" width="160" height="26" as="alternateBounds" />
          </mxGeometry>
        </mxCell>
        <mxCell id="zkfFHV4jXpPFQw0GAbJ--4" value="" style="line;html=1;strokeWidth=1;align=left;verticalAlign=middle;spacingTop=-1;spacingLeft=3;spacingRight=3;rotatable=0;labelPosition=right;points=[];portConstraint=eastwest;" parent="zkfFHV4jXpPFQw0GAbJ--0" vertex="1">
          <mxGeometry y="26" width="280" height="8" as="geometry" />
        </mxCell>
        <mxCell id="zkfFHV4jXpPFQw0GAbJ--5" value="+ Character(x: int, y: int)" style="text;align=left;verticalAlign=top;spacingLeft=4;spacingRight=4;overflow=hidden;rotatable=0;points=[[0,0.5],[1,0.5]];portConstraint=eastwest;" parent="zkfFHV4jXpPFQw0GAbJ--0" vertex="1">
          <mxGeometry y="34" width="280" height="28" as="geometry" />
        </mxCell>
        <mxCell id="wTpdPlGGYszWVzzKWLJ8-6" value="Enemy" style="swimlane;fontStyle=2;align=center;verticalAlign=top;childLayout=stackLayout;horizontal=1;startSize=26;horizontalStack=0;resizeParent=1;resizeLast=0;collapsible=1;marginBottom=0;rounded=0;shadow=0;strokeWidth=1;" parent="WIyWlLk6GJQsqaUBKTNV-1" vertex="1">
          <mxGeometry x="-827" y="915" width="280" height="140" as="geometry">
            <mxRectangle x="-120" y="650" width="160" height="26" as="alternateBounds" />
          </mxGeometry>
        </mxCell>
        <mxCell id="wTpdPlGGYszWVzzKWLJ8-12" value="- speed: int" style="text;align=left;verticalAlign=top;spacingLeft=4;spacingRight=4;overflow=hidden;rotatable=0;points=[[0,0.5],[1,0.5]];portConstraint=eastwest;rounded=0;shadow=0;html=0;" parent="wTpdPlGGYszWVzzKWLJ8-6" vertex="1">
          <mxGeometry y="26" width="280" height="26" as="geometry" />
        </mxCell>
        <mxCell id="wTpdPlGGYszWVzzKWLJ8-20" value="- targetX: final int" style="text;align=left;verticalAlign=top;spacingLeft=4;spacingRight=4;overflow=hidden;rotatable=0;points=[[0,0.5],[1,0.5]];portConstraint=eastwest;rounded=0;shadow=0;html=0;" parent="wTpdPlGGYszWVzzKWLJ8-6" vertex="1">
          <mxGeometry y="52" width="280" height="26" as="geometry" />
        </mxCell>
        <mxCell id="wTpdPlGGYszWVzzKWLJ8-21" value="- targetY: final int" style="text;align=left;verticalAlign=top;spacingLeft=4;spacingRight=4;overflow=hidden;rotatable=0;points=[[0,0.5],[1,0.5]];portConstraint=eastwest;rounded=0;shadow=0;html=0;" parent="wTpdPlGGYszWVzzKWLJ8-6" vertex="1">
          <mxGeometry y="78" width="280" height="26" as="geometry" />
        </mxCell>
        <mxCell id="wTpdPlGGYszWVzzKWLJ8-14" value="" style="line;html=1;strokeWidth=1;align=left;verticalAlign=middle;spacingTop=-1;spacingLeft=3;spacingRight=3;rotatable=0;labelPosition=right;points=[];portConstraint=eastwest;" parent="wTpdPlGGYszWVzzKWLJ8-6" vertex="1">
          <mxGeometry y="104" width="280" height="8" as="geometry" />
        </mxCell>
        <mxCell id="wTpdPlGGYszWVzzKWLJ8-15" value="+ Enemy(x: int, y: int, targetX: int, targetY: int)" style="text;align=left;verticalAlign=top;spacingLeft=4;spacingRight=4;overflow=hidden;rotatable=0;points=[[0,0.5],[1,0.5]];portConstraint=eastwest;" parent="wTpdPlGGYszWVzzKWLJ8-6" vertex="1">
          <mxGeometry y="112" width="280" height="28" as="geometry" />
        </mxCell>
        <mxCell id="wTpdPlGGYszWVzzKWLJ8-22" value="Bullet&#xa;" style="swimlane;fontStyle=2;align=center;verticalAlign=top;childLayout=stackLayout;horizontal=1;startSize=26;horizontalStack=0;resizeParent=1;resizeLast=0;collapsible=1;marginBottom=0;rounded=0;shadow=0;strokeWidth=1;" parent="WIyWlLk6GJQsqaUBKTNV-1" vertex="1">
          <mxGeometry y="115" width="280" height="384" as="geometry">
            <mxRectangle x="550" y="260" width="160" height="26" as="alternateBounds" />
          </mxGeometry>
        </mxCell>
        <mxCell id="wTpdPlGGYszWVzzKWLJ8-23" value="- x : double" style="text;align=left;verticalAlign=top;spacingLeft=4;spacingRight=4;overflow=hidden;rotatable=0;points=[[0,0.5],[1,0.5]];portConstraint=eastwest;rounded=0;shadow=0;html=0;" parent="wTpdPlGGYszWVzzKWLJ8-22" vertex="1">
          <mxGeometry y="26" width="280" height="26" as="geometry" />
        </mxCell>
        <mxCell id="wTpdPlGGYszWVzzKWLJ8-24" value="- y : double" style="text;align=left;verticalAlign=top;spacingLeft=4;spacingRight=4;overflow=hidden;rotatable=0;points=[[0,0.5],[1,0.5]];portConstraint=eastwest;rounded=0;shadow=0;html=0;" parent="wTpdPlGGYszWVzzKWLJ8-22" vertex="1">
          <mxGeometry y="52" width="280" height="26" as="geometry" />
        </mxCell>
        <mxCell id="wTpdPlGGYszWVzzKWLJ8-26" value="- active : boolean" style="text;align=left;verticalAlign=top;spacingLeft=4;spacingRight=4;overflow=hidden;rotatable=0;points=[[0,0.5],[1,0.5]];portConstraint=eastwest;rounded=0;shadow=0;html=0;" parent="wTpdPlGGYszWVzzKWLJ8-22" vertex="1">
          <mxGeometry y="78" width="280" height="26" as="geometry" />
        </mxCell>
        <mxCell id="wTpdPlGGYszWVzzKWLJ8-27" value="- r: final int" style="text;align=left;verticalAlign=top;spacingLeft=4;spacingRight=4;overflow=hidden;rotatable=0;points=[[0,0.5],[1,0.5]];portConstraint=eastwest;rounded=0;shadow=0;html=0;" parent="wTpdPlGGYszWVzzKWLJ8-22" vertex="1">
          <mxGeometry y="104" width="280" height="26" as="geometry" />
        </mxCell>
        <mxCell id="wTpdPlGGYszWVzzKWLJ8-25" value="- speed : final int" style="text;align=left;verticalAlign=top;spacingLeft=4;spacingRight=4;overflow=hidden;rotatable=0;points=[[0,0.5],[1,0.5]];portConstraint=eastwest;rounded=0;shadow=0;html=0;" parent="wTpdPlGGYszWVzzKWLJ8-22" vertex="1">
          <mxGeometry y="130" width="280" height="26" as="geometry" />
        </mxCell>
        <mxCell id="wTpdPlGGYszWVzzKWLJ8-33" value="- targetX: final int" style="text;align=left;verticalAlign=top;spacingLeft=4;spacingRight=4;overflow=hidden;rotatable=0;points=[[0,0.5],[1,0.5]];portConstraint=eastwest;rounded=0;shadow=0;html=0;" parent="wTpdPlGGYszWVzzKWLJ8-22" vertex="1">
          <mxGeometry y="156" width="280" height="26" as="geometry" />
        </mxCell>
        <mxCell id="wTpdPlGGYszWVzzKWLJ8-28" value="- targetY: final int" style="text;align=left;verticalAlign=top;spacingLeft=4;spacingRight=4;overflow=hidden;rotatable=0;points=[[0,0.5],[1,0.5]];portConstraint=eastwest;" parent="wTpdPlGGYszWVzzKWLJ8-22" vertex="1">
          <mxGeometry y="182" width="280" height="26" as="geometry" />
        </mxCell>
        <mxCell id="wTpdPlGGYszWVzzKWLJ8-29" value="" style="line;html=1;strokeWidth=1;align=left;verticalAlign=middle;spacingTop=-1;spacingLeft=3;spacingRight=3;rotatable=0;labelPosition=right;points=[];portConstraint=eastwest;" parent="wTpdPlGGYszWVzzKWLJ8-22" vertex="1">
          <mxGeometry y="208" width="280" height="8" as="geometry" />
        </mxCell>
        <mxCell id="wTpdPlGGYszWVzzKWLJ8-30" value="+ Bullet(x: int, y: int, r: int, targetX: int, targetY: int)" style="text;align=left;verticalAlign=top;spacingLeft=4;spacingRight=4;overflow=hidden;rotatable=0;points=[[0,0.5],[1,0.5]];portConstraint=eastwest;" parent="wTpdPlGGYszWVzzKWLJ8-22" vertex="1">
          <mxGeometry y="216" width="280" height="28" as="geometry" />
        </mxCell>
        <mxCell id="wTpdPlGGYszWVzzKWLJ8-31" value="+ draw(g: Graphics): void" style="text;align=left;verticalAlign=top;spacingLeft=4;spacingRight=4;overflow=hidden;rotatable=0;points=[[0,0.5],[1,0.5]];portConstraint=eastwest;" parent="wTpdPlGGYszWVzzKWLJ8-22" vertex="1">
          <mxGeometry y="244" width="280" height="28" as="geometry" />
        </mxCell>
        <mxCell id="wTpdPlGGYszWVzzKWLJ8-32" value="+ isActive(): boolean" style="text;align=left;verticalAlign=top;spacingLeft=4;spacingRight=4;overflow=hidden;rotatable=0;points=[[0,0.5],[1,0.5]];portConstraint=eastwest;" parent="wTpdPlGGYszWVzzKWLJ8-22" vertex="1">
          <mxGeometry y="272" width="280" height="28" as="geometry" />
        </mxCell>
        <mxCell id="wTpdPlGGYszWVzzKWLJ8-34" value="+ run(): void" style="text;align=left;verticalAlign=top;spacingLeft=4;spacingRight=4;overflow=hidden;rotatable=0;points=[[0,0.5],[1,0.5]];portConstraint=eastwest;" parent="wTpdPlGGYszWVzzKWLJ8-22" vertex="1">
          <mxGeometry y="300" width="280" height="28" as="geometry" />
        </mxCell>
        <mxCell id="wTpdPlGGYszWVzzKWLJ8-35" value="+ getX(): double" style="text;align=left;verticalAlign=top;spacingLeft=4;spacingRight=4;overflow=hidden;rotatable=0;points=[[0,0.5],[1,0.5]];portConstraint=eastwest;" parent="wTpdPlGGYszWVzzKWLJ8-22" vertex="1">
          <mxGeometry y="328" width="280" height="28" as="geometry" />
        </mxCell>
        <mxCell id="wTpdPlGGYszWVzzKWLJ8-36" value="+ getY(): double" style="text;align=left;verticalAlign=top;spacingLeft=4;spacingRight=4;overflow=hidden;rotatable=0;points=[[0,0.5],[1,0.5]];portConstraint=eastwest;" parent="wTpdPlGGYszWVzzKWLJ8-22" vertex="1">
          <mxGeometry y="356" width="280" height="28" as="geometry" />
        </mxCell>
        <mxCell id="wTpdPlGGYszWVzzKWLJ8-37" value="Model" style="swimlane;fontStyle=2;align=center;verticalAlign=top;childLayout=stackLayout;horizontal=1;startSize=26;horizontalStack=0;resizeParent=1;resizeLast=0;collapsible=1;marginBottom=0;rounded=0;shadow=0;strokeWidth=1;" parent="WIyWlLk6GJQsqaUBKTNV-1" vertex="1">
          <mxGeometry x="-547" y="115" width="280" height="554" as="geometry">
            <mxRectangle x="80" y="40" width="160" height="26" as="alternateBounds" />
          </mxGeometry>
        </mxCell>
        <mxCell id="wTpdPlGGYszWVzzKWLJ8-38" value="- x : int                     " style="text;align=left;verticalAlign=top;spacingLeft=4;spacingRight=4;overflow=hidden;rotatable=0;points=[[0,0.5],[1,0.5]];portConstraint=eastwest;rounded=0;shadow=0;html=0;" parent="wTpdPlGGYszWVzzKWLJ8-37" vertex="1">
          <mxGeometry y="26" width="280" height="26" as="geometry" />
        </mxCell>
        <mxCell id="wTpdPlGGYszWVzzKWLJ8-39" value="- y : int                     " style="text;align=left;verticalAlign=top;spacingLeft=4;spacingRight=4;overflow=hidden;rotatable=0;points=[[0,0.5],[1,0.5]];portConstraint=eastwest;rounded=0;shadow=0;html=0;" parent="wTpdPlGGYszWVzzKWLJ8-37" vertex="1">
          <mxGeometry y="52" width="280" height="26" as="geometry" />
        </mxCell>
        <mxCell id="wTpdPlGGYszWVzzKWLJ8-40" value="- radian : double " style="text;align=left;verticalAlign=top;spacingLeft=4;spacingRight=4;overflow=hidden;rotatable=0;points=[[0,0.5],[1,0.5]];portConstraint=eastwest;rounded=0;shadow=0;html=0;" parent="wTpdPlGGYszWVzzKWLJ8-37" vertex="1">
          <mxGeometry y="78" width="280" height="26" as="geometry" />
        </mxCell>
        <mxCell id="wTpdPlGGYszWVzzKWLJ8-43" value="- texture : Image  " style="text;align=left;verticalAlign=top;spacingLeft=4;spacingRight=4;overflow=hidden;rotatable=0;points=[[0,0.5],[1,0.5]];portConstraint=eastwest;rounded=0;shadow=0;html=0;" parent="wTpdPlGGYszWVzzKWLJ8-37" vertex="1">
          <mxGeometry y="104" width="280" height="26" as="geometry" />
        </mxCell>
        <mxCell id="wTpdPlGGYszWVzzKWLJ8-44" value="- width : int                 " style="text;align=left;verticalAlign=top;spacingLeft=4;spacingRight=4;overflow=hidden;rotatable=0;points=[[0,0.5],[1,0.5]];portConstraint=eastwest;rounded=0;shadow=0;html=0;" parent="wTpdPlGGYszWVzzKWLJ8-37" vertex="1">
          <mxGeometry y="130" width="280" height="26" as="geometry" />
        </mxCell>
        <mxCell id="wTpdPlGGYszWVzzKWLJ8-45" value="- height : int                 " style="text;align=left;verticalAlign=top;spacingLeft=4;spacingRight=4;overflow=hidden;rotatable=0;points=[[0,0.5],[1,0.5]];portConstraint=eastwest;rounded=0;shadow=0;html=0;" parent="wTpdPlGGYszWVzzKWLJ8-37" vertex="1">
          <mxGeometry y="156" width="280" height="26" as="geometry" />
        </mxCell>
        <mxCell id="wTpdPlGGYszWVzzKWLJ8-41" value="" style="line;html=1;strokeWidth=1;align=left;verticalAlign=middle;spacingTop=-1;spacingLeft=3;spacingRight=3;rotatable=0;labelPosition=right;points=[];portConstraint=eastwest;" parent="wTpdPlGGYszWVzzKWLJ8-37" vertex="1">
          <mxGeometry y="182" width="280" height="8" as="geometry" />
        </mxCell>
        <mxCell id="wTpdPlGGYszWVzzKWLJ8-42" value="+ Model(x : int, y : int, width : int, height : int)" style="text;align=left;verticalAlign=top;spacingLeft=4;spacingRight=4;overflow=hidden;rotatable=0;points=[[0,0.5],[1,0.5]];portConstraint=eastwest;" parent="wTpdPlGGYszWVzzKWLJ8-37" vertex="1">
          <mxGeometry y="190" width="280" height="28" as="geometry" />
        </mxCell>
        <mxCell id="wTpdPlGGYszWVzzKWLJ8-52" value="+ draw(g : Graphics) : void" style="text;align=left;verticalAlign=top;spacingLeft=4;spacingRight=4;overflow=hidden;rotatable=0;points=[[0,0.5],[1,0.5]];portConstraint=eastwest;" parent="wTpdPlGGYszWVzzKWLJ8-37" vertex="1">
          <mxGeometry y="218" width="280" height="28" as="geometry" />
        </mxCell>
        <mxCell id="wTpdPlGGYszWVzzKWLJ8-50" value="+ rotate(mouseX : int, mouseY : int) : void " style="text;align=left;verticalAlign=top;spacingLeft=4;spacingRight=4;overflow=hidden;rotatable=0;points=[[0,0.5],[1,0.5]];portConstraint=eastwest;" parent="wTpdPlGGYszWVzzKWLJ8-37" vertex="1">
          <mxGeometry y="246" width="280" height="28" as="geometry" />
        </mxCell>
        <mxCell id="wTpdPlGGYszWVzzKWLJ8-47" value="+ getX() : int " style="text;align=left;verticalAlign=top;spacingLeft=4;spacingRight=4;overflow=hidden;rotatable=0;points=[[0,0.5],[1,0.5]];portConstraint=eastwest;" parent="wTpdPlGGYszWVzzKWLJ8-37" vertex="1">
          <mxGeometry y="274" width="280" height="28" as="geometry" />
        </mxCell>
        <mxCell id="wTpdPlGGYszWVzzKWLJ8-48" value="+ setX(x : int) : int " style="text;align=left;verticalAlign=top;spacingLeft=4;spacingRight=4;overflow=hidden;rotatable=0;points=[[0,0.5],[1,0.5]];portConstraint=eastwest;" parent="wTpdPlGGYszWVzzKWLJ8-37" vertex="1">
          <mxGeometry y="302" width="280" height="28" as="geometry" />
        </mxCell>
        <mxCell id="wTpdPlGGYszWVzzKWLJ8-49" value="+ getY() : int " style="text;align=left;verticalAlign=top;spacingLeft=4;spacingRight=4;overflow=hidden;rotatable=0;points=[[0,0.5],[1,0.5]];portConstraint=eastwest;" parent="wTpdPlGGYszWVzzKWLJ8-37" vertex="1">
          <mxGeometry y="330" width="280" height="28" as="geometry" />
        </mxCell>
        <mxCell id="wTpdPlGGYszWVzzKWLJ8-54" value="+ setY(y : int) : int " style="text;align=left;verticalAlign=top;spacingLeft=4;spacingRight=4;overflow=hidden;rotatable=0;points=[[0,0.5],[1,0.5]];portConstraint=eastwest;" parent="wTpdPlGGYszWVzzKWLJ8-37" vertex="1">
          <mxGeometry y="358" width="280" height="28" as="geometry" />
        </mxCell>
        <mxCell id="wTpdPlGGYszWVzzKWLJ8-55" value="+ getRadian() : double   " style="text;align=left;verticalAlign=top;spacingLeft=4;spacingRight=4;overflow=hidden;rotatable=0;points=[[0,0.5],[1,0.5]];portConstraint=eastwest;" parent="wTpdPlGGYszWVzzKWLJ8-37" vertex="1">
          <mxGeometry y="386" width="280" height="28" as="geometry" />
        </mxCell>
        <mxCell id="wTpdPlGGYszWVzzKWLJ8-59" value="+ setRadian(radian : double) : double   " style="text;align=left;verticalAlign=top;spacingLeft=4;spacingRight=4;overflow=hidden;rotatable=0;points=[[0,0.5],[1,0.5]];portConstraint=eastwest;" parent="wTpdPlGGYszWVzzKWLJ8-37" vertex="1">
          <mxGeometry y="414" width="280" height="28" as="geometry" />
        </mxCell>
        <mxCell id="wTpdPlGGYszWVzzKWLJ8-63" value="+ getTexture() : Image  " style="text;align=left;verticalAlign=top;spacingLeft=4;spacingRight=4;overflow=hidden;rotatable=0;points=[[0,0.5],[1,0.5]];portConstraint=eastwest;" parent="wTpdPlGGYszWVzzKWLJ8-37" vertex="1">
          <mxGeometry y="442" width="280" height="28" as="geometry" />
        </mxCell>
        <mxCell id="wTpdPlGGYszWVzzKWLJ8-56" value="+ setTexture(texture : Image) : Image  " style="text;align=left;verticalAlign=top;spacingLeft=4;spacingRight=4;overflow=hidden;rotatable=0;points=[[0,0.5],[1,0.5]];portConstraint=eastwest;" parent="wTpdPlGGYszWVzzKWLJ8-37" vertex="1">
          <mxGeometry y="470" width="280" height="28" as="geometry" />
        </mxCell>
        <mxCell id="wTpdPlGGYszWVzzKWLJ8-62" value="+ getWidth() : int " style="text;align=left;verticalAlign=top;spacingLeft=4;spacingRight=4;overflow=hidden;rotatable=0;points=[[0,0.5],[1,0.5]];portConstraint=eastwest;" parent="wTpdPlGGYszWVzzKWLJ8-37" vertex="1">
          <mxGeometry y="498" width="280" height="28" as="geometry" />
        </mxCell>
        <mxCell id="wTpdPlGGYszWVzzKWLJ8-57" value="+ getHeight() : int " style="text;align=left;verticalAlign=top;spacingLeft=4;spacingRight=4;overflow=hidden;rotatable=0;points=[[0,0.5],[1,0.5]];portConstraint=eastwest;" parent="wTpdPlGGYszWVzzKWLJ8-37" vertex="1">
          <mxGeometry y="526" width="280" height="28" as="geometry" />
        </mxCell>
        <mxCell id="wTpdPlGGYszWVzzKWLJ8-74" value="GamePanel" style="swimlane;fontStyle=2;align=center;verticalAlign=top;childLayout=stackLayout;horizontal=1;startSize=26;horizontalStack=0;resizeParent=1;resizeLast=0;collapsible=1;marginBottom=0;rounded=0;shadow=0;strokeWidth=1;" parent="WIyWlLk6GJQsqaUBKTNV-1" vertex="1">
          <mxGeometry x="-1107" y="120" width="280" height="390" as="geometry">
            <mxRectangle x="-120" y="650" width="160" height="26" as="alternateBounds" />
          </mxGeometry>
        </mxCell>
        <mxCell id="wTpdPlGGYszWVzzKWLJ8-75" value=" - originX : int" style="text;align=left;verticalAlign=top;spacingLeft=4;spacingRight=4;overflow=hidden;rotatable=0;points=[[0,0.5],[1,0.5]];portConstraint=eastwest;rounded=0;shadow=0;html=0;" parent="wTpdPlGGYszWVzzKWLJ8-74" vertex="1">
          <mxGeometry y="26" width="280" height="26" as="geometry" />
        </mxCell>
        <mxCell id="wTpdPlGGYszWVzzKWLJ8-76" value=" - originY : int" style="text;align=left;verticalAlign=top;spacingLeft=4;spacingRight=4;overflow=hidden;rotatable=0;points=[[0,0.5],[1,0.5]];portConstraint=eastwest;rounded=0;shadow=0;html=0;" parent="wTpdPlGGYszWVzzKWLJ8-74" vertex="1">
          <mxGeometry y="52" width="280" height="26" as="geometry" />
        </mxCell>
        <mxCell id="wTpdPlGGYszWVzzKWLJ8-77" value="- character : Character" style="text;align=left;verticalAlign=top;spacingLeft=4;spacingRight=4;overflow=hidden;rotatable=0;points=[[0,0.5],[1,0.5]];portConstraint=eastwest;rounded=0;shadow=0;html=0;" parent="wTpdPlGGYszWVzzKWLJ8-74" vertex="1">
          <mxGeometry y="78" width="280" height="26" as="geometry" />
        </mxCell>
        <mxCell id="wTpdPlGGYszWVzzKWLJ8-83" value="- map : BufferedImage" style="text;align=left;verticalAlign=top;spacingLeft=4;spacingRight=4;overflow=hidden;rotatable=0;points=[[0,0.5],[1,0.5]];portConstraint=eastwest;rounded=0;shadow=0;html=0;" parent="wTpdPlGGYszWVzzKWLJ8-74" vertex="1">
          <mxGeometry y="104" width="280" height="26" as="geometry" />
        </mxCell>
        <mxCell id="wTpdPlGGYszWVzzKWLJ8-80" value="- score : int" style="text;align=left;verticalAlign=top;spacingLeft=4;spacingRight=4;overflow=hidden;rotatable=0;points=[[0,0.5],[1,0.5]];portConstraint=eastwest;rounded=0;shadow=0;html=0;" parent="wTpdPlGGYszWVzzKWLJ8-74" vertex="1">
          <mxGeometry y="130" width="280" height="26" as="geometry" />
        </mxCell>
        <mxCell id="wTpdPlGGYszWVzzKWLJ8-81" value="- bullets : List&lt;Bullet&gt;" style="text;align=left;verticalAlign=top;spacingLeft=4;spacingRight=4;overflow=hidden;rotatable=0;points=[[0,0.5],[1,0.5]];portConstraint=eastwest;rounded=0;shadow=0;html=0;" parent="wTpdPlGGYszWVzzKWLJ8-74" vertex="1">
          <mxGeometry y="156" width="280" height="26" as="geometry" />
        </mxCell>
        <mxCell id="wTpdPlGGYszWVzzKWLJ8-82" value="- enemies: List&lt;Enemy&gt;" style="text;align=left;verticalAlign=top;spacingLeft=4;spacingRight=4;overflow=hidden;rotatable=0;points=[[0,0.5],[1,0.5]];portConstraint=eastwest;rounded=0;shadow=0;html=0;" parent="wTpdPlGGYszWVzzKWLJ8-74" vertex="1">
          <mxGeometry y="182" width="280" height="26" as="geometry" />
        </mxCell>
        <mxCell id="wTpdPlGGYszWVzzKWLJ8-85" value="- scoreLabel : JLabel" style="text;align=left;verticalAlign=top;spacingLeft=4;spacingRight=4;overflow=hidden;rotatable=0;points=[[0,0.5],[1,0.5]];portConstraint=eastwest;rounded=0;shadow=0;html=0;" parent="wTpdPlGGYszWVzzKWLJ8-74" vertex="1">
          <mxGeometry y="208" width="280" height="26" as="geometry" />
        </mxCell>
        <mxCell id="wTpdPlGGYszWVzzKWLJ8-78" value="" style="line;html=1;strokeWidth=1;align=left;verticalAlign=middle;spacingTop=-1;spacingLeft=3;spacingRight=3;rotatable=0;labelPosition=right;points=[];portConstraint=eastwest;" parent="wTpdPlGGYszWVzzKWLJ8-74" vertex="1">
          <mxGeometry y="234" width="280" height="8" as="geometry" />
        </mxCell>
        <mxCell id="wTpdPlGGYszWVzzKWLJ8-118" value="+ GamePanel(screenWidth: int, screenHeight: int)" style="text;align=left;verticalAlign=top;spacingLeft=4;spacingRight=4;overflow=hidden;rotatable=0;points=[[0,0.5],[1,0.5]];portConstraint=eastwest;" parent="wTpdPlGGYszWVzzKWLJ8-74" vertex="1">
          <mxGeometry y="242" width="280" height="28" as="geometry" />
        </mxCell>
        <mxCell id="wTpdPlGGYszWVzzKWLJ8-103" value="+ paintComponent(g: Graphics) : void" style="text;align=left;verticalAlign=top;spacingLeft=4;spacingRight=4;overflow=hidden;rotatable=0;points=[[0,0.5],[1,0.5]];portConstraint=eastwest;" parent="wTpdPlGGYszWVzzKWLJ8-74" vertex="1">
          <mxGeometry y="270" width="280" height="28" as="geometry" />
        </mxCell>
        <mxCell id="wTpdPlGGYszWVzzKWLJ8-101" value="" style="line;strokeWidth=1;fillColor=none;align=left;verticalAlign=middle;spacingTop=-1;spacingLeft=3;spacingRight=3;rotatable=0;labelPosition=right;points=[];portConstraint=eastwest;strokeColor=inherit;" parent="wTpdPlGGYszWVzzKWLJ8-74" vertex="1">
          <mxGeometry y="298" width="280" height="8" as="geometry" />
        </mxCell>
        <mxCell id="wTpdPlGGYszWVzzKWLJ8-86" value="+ GameMouseClickListener : void" style="text;align=left;verticalAlign=top;spacingLeft=4;spacingRight=4;overflow=hidden;rotatable=0;points=[[0,0.5],[1,0.5]];portConstraint=eastwest;" parent="wTpdPlGGYszWVzzKWLJ8-74" vertex="1">
          <mxGeometry y="306" width="280" height="28" as="geometry" />
        </mxCell>
        <mxCell id="wTpdPlGGYszWVzzKWLJ8-79" value="+ GameMouseMotionListener : void" style="text;align=left;verticalAlign=top;spacingLeft=4;spacingRight=4;overflow=hidden;rotatable=0;points=[[0,0.5],[1,0.5]];portConstraint=eastwest;" parent="wTpdPlGGYszWVzzKWLJ8-74" vertex="1">
          <mxGeometry y="334" width="280" height="28" as="geometry" />
        </mxCell>
        <mxCell id="wTpdPlGGYszWVzzKWLJ8-95" value="" style="endArrow=none;html=1;edgeStyle=orthogonalEdgeStyle;rounded=0;entryX=0.5;entryY=0;entryDx=0;entryDy=0;exitX=0.75;exitY=1;exitDx=0;exitDy=0;" parent="WIyWlLk6GJQsqaUBKTNV-1" source="wTpdPlGGYszWVzzKWLJ8-37" target="zkfFHV4jXpPFQw0GAbJ--0" edge="1">
          <mxGeometry relative="1" as="geometry">
            <mxPoint x="-447" y="335" as="sourcePoint" />
            <mxPoint x="-287" y="335" as="targetPoint" />
          </mxGeometry>
        </mxCell>
        <mxCell id="wTpdPlGGYszWVzzKWLJ8-96" value="parent" style="edgeLabel;resizable=0;html=1;align=left;verticalAlign=bottom;" parent="wTpdPlGGYszWVzzKWLJ8-95" connectable="0" vertex="1">
          <mxGeometry x="-1" relative="1" as="geometry" />
        </mxCell>
        <mxCell id="wTpdPlGGYszWVzzKWLJ8-97" value="child" style="edgeLabel;resizable=0;html=1;align=right;verticalAlign=bottom;" parent="wTpdPlGGYszWVzzKWLJ8-95" connectable="0" vertex="1">
          <mxGeometry x="1" relative="1" as="geometry" />
        </mxCell>
        <mxCell id="wTpdPlGGYszWVzzKWLJ8-98" value="" style="endArrow=none;html=1;edgeStyle=orthogonalEdgeStyle;rounded=0;entryX=0.5;entryY=0;entryDx=0;entryDy=0;exitX=0.25;exitY=1;exitDx=0;exitDy=0;" parent="WIyWlLk6GJQsqaUBKTNV-1" source="wTpdPlGGYszWVzzKWLJ8-37" target="wTpdPlGGYszWVzzKWLJ8-6" edge="1">
          <mxGeometry relative="1" as="geometry">
            <mxPoint x="-447" y="335" as="sourcePoint" />
            <mxPoint x="-287" y="335" as="targetPoint" />
          </mxGeometry>
        </mxCell>
        <mxCell id="wTpdPlGGYszWVzzKWLJ8-99" value="parent" style="edgeLabel;resizable=0;html=1;align=left;verticalAlign=bottom;" parent="wTpdPlGGYszWVzzKWLJ8-98" connectable="0" vertex="1">
          <mxGeometry x="-1" relative="1" as="geometry" />
        </mxCell>
        <mxCell id="wTpdPlGGYszWVzzKWLJ8-100" value="child" style="edgeLabel;resizable=0;html=1;align=right;verticalAlign=bottom;" parent="wTpdPlGGYszWVzzKWLJ8-98" connectable="0" vertex="1">
          <mxGeometry x="1" relative="1" as="geometry" />
        </mxCell>
        <mxCell id="wTpdPlGGYszWVzzKWLJ8-104" value="Start Panel" style="swimlane;fontStyle=2;align=center;verticalAlign=top;childLayout=stackLayout;horizontal=1;startSize=26;horizontalStack=0;resizeParent=1;resizeLast=0;collapsible=1;marginBottom=0;rounded=0;shadow=0;strokeWidth=1;" parent="WIyWlLk6GJQsqaUBKTNV-1" vertex="1">
          <mxGeometry x="-1507" y="120" width="320" height="124" as="geometry">
            <mxRectangle x="-120" y="650" width="160" height="26" as="alternateBounds" />
          </mxGeometry>
        </mxCell>
        <mxCell id="wTpdPlGGYszWVzzKWLJ8-105" value="- backgroundImage : BufferedImage" style="text;align=left;verticalAlign=top;spacingLeft=4;spacingRight=4;overflow=hidden;rotatable=0;points=[[0,0.5],[1,0.5]];portConstraint=eastwest;rounded=0;shadow=0;html=0;" parent="wTpdPlGGYszWVzzKWLJ8-104" vertex="1">
          <mxGeometry y="26" width="320" height="26" as="geometry" />
        </mxCell>
        <mxCell id="wTpdPlGGYszWVzzKWLJ8-113" value="" style="line;html=1;strokeWidth=1;align=left;verticalAlign=middle;spacingTop=-1;spacingLeft=3;spacingRight=3;rotatable=0;labelPosition=right;points=[];portConstraint=eastwest;" parent="wTpdPlGGYszWVzzKWLJ8-104" vertex="1">
          <mxGeometry y="52" width="320" height="8" as="geometry" />
        </mxCell>
        <mxCell id="wTpdPlGGYszWVzzKWLJ8-114" value="+ StartPanel(cardLayout: CardLayout, cardPanel: JPanel)" style="text;align=left;verticalAlign=top;spacingLeft=4;spacingRight=4;overflow=hidden;rotatable=0;points=[[0,0.5],[1,0.5]];portConstraint=eastwest;" parent="wTpdPlGGYszWVzzKWLJ8-104" vertex="1">
          <mxGeometry y="60" width="320" height="28" as="geometry" />
        </mxCell>
        <mxCell id="wTpdPlGGYszWVzzKWLJ8-117" value="+ paintComponent(g: Graphics) : void" style="text;align=left;verticalAlign=top;spacingLeft=4;spacingRight=4;overflow=hidden;rotatable=0;points=[[0,0.5],[1,0.5]];portConstraint=eastwest;" parent="wTpdPlGGYszWVzzKWLJ8-104" vertex="1">
          <mxGeometry y="88" width="320" height="28" as="geometry" />
        </mxCell>
        <mxCell id="wTpdPlGGYszWVzzKWLJ8-116" value="" style="line;strokeWidth=1;fillColor=none;align=left;verticalAlign=middle;spacingTop=-1;spacingLeft=3;spacingRight=3;rotatable=0;labelPosition=right;points=[];portConstraint=eastwest;strokeColor=inherit;" parent="wTpdPlGGYszWVzzKWLJ8-104" vertex="1">
          <mxGeometry y="116" width="320" height="8" as="geometry" />
        </mxCell>
      </root>
    </mxGraphModel>
  </diagram>
</mxfile>
